<?xml version="1.0" encoding="iso-8859-1"?>
<!-- Generator: Adobe Illustrator 19.0.0, SVG Export Plug-In . SVG Version: 6.00 Build 0)  -->
<svg version="1.1" id="Layer_1" xmlns="http://www.w3.org/2000/svg" xmlns:xlink="http://www.w3.org/1999/xlink" x="0px" y="0px"
	 viewBox="0 0 512 512" style="enable-background:new 0 0 512 512;" xml:space="preserve">
<g>
	<g>
		<path d="M256,0C114.848,0,0,114.848,0,256s114.848,256,256,256s256-114.848,256-256S397.152,0,256,0z M256,480
			C132.48,480,32,379.52,32,256S132.48,32,256,32s224,100.48,224,224S379.52,480,256,480z"/>
	</g>
</g>
<g>
	<g>
		<path d="M328.416,162.384c-4.72-2.912-10.624-3.168-15.568-0.704l-160,79.968c-5.424,2.704-8.848,8.256-8.848,14.32
			c0,6.048,3.424,11.6,8.848,14.32l160,80.032c2.256,1.12,4.704,1.68,7.152,1.68c2.928,0,5.84-0.8,8.416-2.384
			C333.12,346.688,336,341.552,336,336V176C336,170.448,333.136,165.312,328.416,162.384z M304,310.112l-108.224-54.144L304,201.888
			V310.112z"/>
	</g>
</g>
<g>
</g>
<g>
</g>
<g>
</g>
<g>
</g>
<g>
</g>
<g>
</g>
<g>
</g>
<g>
</g>
<g>
</g>
<g>
</g>
<g>
</g>
<g>
</g>
<g>
</g>
<g>
</g>
<g>
</g>
</svg>
